<?xml version="1.0" encoding="UTF-8"?>
<svg id="Camada_1" data-name="Camada 1" xmlns="http://www.w3.org/2000/svg" viewBox="0 0 871.73 518.2">
  <g>
    <path d="M132.75,232.44c23.63.6,47.22.39,70.51-4.66,27.09-5.87,51.78,0,73.58,16.9,10.81,8.39,22.77,10.58,35.85,9.68,27.06-1.86,45.61-29.54,37.08-55.32-1.72-5.19-4.9-8.45-10.54-8-6.59.53-9.93,5.3-9.82,11.08.32,17.77-3.48,32.47-25.12,31.56-14.13-.59-20.25-12.92-19.29-37.3,1.58-40.31,21.49-71.77,51.82-95.92,31.7-25.24,72.92-14.4,101,1.14,9.78,5.41,15.76,15.27,18.02,26.34,2.78,13.56,10.14,20.16,24.11,18.54,17.97-2.08,23.76,6.71,22.65,23.57-.72,10.97-2.01,21.72-5.26,32.14-8.04,25.73-16.21,31.62-43.24,31.85-6.06.05-12.12-.16-18.17.08-25.47,1.01-40.77,14.81-43.06,39.98-6.09,66.94-11.71,133.92-17.76,200.86-.66,7.26,2.82,17.88-7.8,19.88-10.54,1.98-18.34-4.94-23.19-14.09-7.93-14.98-15.58-30.11-23.09-45.31-8.93-18.07-22.71-27.07-43.41-26.69-34.52.64-69.06.6-103.58-.03-14.7-.27-25.85,4.05-33.6,16.88-5.86,9.7-14.69,16.04-25.45,19.45-17.05,5.4-29.65,15.86-37.87,31.79-1.92,3.73-4.27,7.41-7.15,10.43-5.61,5.9-12.78,10.86-20.9,8.27-8.63-2.75-4.11-11.44-4.61-17.48-2.17-26.5,2.03-51.83,14.65-75.58,5.49-10.33,7.28-21.57,6.94-33.38-.48-16.35-1.23-32.82.2-49.06,2.36-26.87-4.5-45.27-29.84-61.23-43.11-27.14-47.91-87.26-14.59-126.01,31.65-36.8,88.12-40.36,121.29-7.25,5.9,5.89,10.6,13.18,14.99,20.35,7.19,11.75,7.43,23.31-4.89,31.96-10.9,7.65-25.33,3.26-33.48-10.37-8.62-14.4-20.37-23.05-37.33-19.79-17.82,3.43-30.76,13.91-35.79,32.17-6.84,24.87,11.57,50.21,38.92,52.32,15.65,1.21,31.48.22,47.22.22Z" style="fill: #1491cb; stroke-width: 0px;"/>
    <path d="M407.88,340.74c.25-5.43.36-10.86.8-16.27,2.48-30.85,8.31-34.65,37.14-24.36,28.53,10.18,45.86,47.16,35.93,76.27-1.95,5.71-5.4,9.58-11.22,10.45-7.47,1.12-12.99-3.04-16.53-8.94-8.91-14.87-18.68-23.02-36.17-10.67-7.17,5.06-11-1.59-11.28-8.45-.24-5.98.84-12.01,1.32-18.02Z" style="fill: #1a94cc; stroke-width: 0px;"/>
    <path d="M219.65,475.92c.25,7.51-.45,14.66-8.22,18.55-8.23,4.13-13.86-.75-18.93-6.1-10.78-11.36-21.71-22.61-31.79-34.57-9.84-11.69-5.81-21.14,9.44-24.09,28.72-5.57,49.79,14.09,49.49,46.21Z" style="fill: #1a94cc; stroke-width: 0px;"/>
  </g>
  <g>
    <path d="M612.74,133.38c1.27.54,1.63,1.27,1.08,2.53-5.96,13.19-18.8,19.88-33.98,19.88-21.15,0-37.59-13.19-37.59-38.32s16.45-38.32,37.59-38.32c16.09,0,29.1,7.41,34.7,22.05.54.9,0,2.17-1.26,2.35l-7.95,2.71c-.9.54-1.99-.36-2.53-1.27-3.61-8.68-11.57-13.92-22.95-13.92-15.91,0-24.94,10.3-24.94,26.39s9.04,26.39,24.94,26.39c10.84,0,18.8-4.7,22.59-12.83.54-1.27,1.26-1.63,2.53-1.08l7.77,3.43Z" style="fill: #1190cb; stroke-width: 0px;"/>
    <path d="M705.82,117.48v34.16c0,1.27-.72,1.99-1.99,1.99h-8.68c-1.27,0-1.99-.72-1.99-1.99v-8.31c-6.33,8.49-16.27,12.29-25.48,12.47-21.15.54-37.05-13.19-37.05-38.32,0-22.59,16.45-38.32,37.59-38.32s37.59,13.74,37.59,38.32ZM693.17,117.48c0-16.09-9.04-26.39-24.94-26.39s-24.94,10.3-24.94,26.39,9.04,26.39,24.94,26.39,24.4-9.76,24.94-26.39Z" style="fill: #1190cb; stroke-width: 0px;"/>
    <path d="M767.45,91.63c-.18,1.27-1.08,1.63-2.35,1.45-2.71-.72-5.96-1.27-8.68-1.27-8.49,0-16.27,4.16-16.27,15.54v44.28c0,1.27-.72,1.99-1.99,1.99h-8.67c-1.27,0-1.99-.72-1.99-1.99v-43.74c0-19.52,12.29-28.01,27.65-28.01,4.16,0,8.49.54,12.65,1.63,1.27.54,1.81,1.27,1.45,2.53l-1.81,7.59Z" style="fill: #1190cb; stroke-width: 0px;"/>
    <path d="M843.9,140.97c.9.54,1.27,1.63.54,2.53-7.05,7.95-16.63,12.29-28.92,12.29-21.15,0-37.59-13.19-37.59-38.32s16.45-38.32,37.59-38.32,37.59,13.19,37.59,37.96c0,1.27-.72,1.99-1.99,1.99h-60.55c.54,15.18,9.58,24.76,24.94,24.76,7.05,0,13.56-2.35,17.71-6.15.9-.9,1.99-1.08,3.25-.54l7.41,3.8ZM791.48,108.8h47.9c-2.89-10.84-10.84-17.71-23.86-17.71s-21.33,6.87-24.04,17.71Z" style="fill: #1190cb; stroke-width: 0px;"/>
    <path d="M572.97,306.45c0,1.27-.72,1.99-1.99,1.99h-8.67c-1.27,0-1.99-.72-1.99-1.99v-58.74h-19.7c-1.26,0-1.99-.72-1.99-1.99v-7.59c0-1.27.72-1.99,1.99-1.99h19.7v-28.74c0-1.27.72-1.99,1.99-1.99h8.67c1.27,0,1.99.72,1.99,1.99v28.74h19.7c1.26,0,1.99.72,1.99,1.99v7.59c0,1.27-.72,1.99-1.99,1.99h-19.7v58.74Z" style="fill: #1190cb; stroke-width: 0px;"/>
    <path d="M672.38,295.79c.9.54,1.27,1.63.54,2.53-7.05,7.95-16.63,12.29-28.92,12.29-21.15,0-37.59-13.19-37.59-38.32s16.45-38.32,37.59-38.32,37.59,13.19,37.59,37.96c0,1.27-.72,1.99-1.99,1.99h-60.55c.54,15.18,9.58,24.76,24.94,24.76,7.05,0,13.56-2.35,17.71-6.15.9-.9,1.99-1.08,3.25-.54l7.41,3.8ZM619.96,263.62h47.9c-2.89-10.84-10.84-17.71-23.86-17.71s-21.33,6.87-24.04,17.71Z" style="fill: #1190cb; stroke-width: 0px;"/>
    <path d="M768.35,288.2c1.27.54,1.63,1.27,1.08,2.53-5.96,13.19-18.8,19.88-33.98,19.88-21.15,0-37.59-13.19-37.59-38.32s16.45-38.32,37.59-38.32c16.09,0,29.1,7.41,34.7,22.05.54.9,0,2.17-1.26,2.35l-7.95,2.71c-.9.54-1.99-.36-2.53-1.27-3.61-8.68-11.57-13.92-22.95-13.92-15.91,0-24.94,10.3-24.94,26.39s9.04,26.39,24.94,26.39c10.84,0,18.8-4.7,22.59-12.83.54-1.27,1.26-1.63,2.53-1.08l7.77,3.43Z" style="fill: #1190cb; stroke-width: 0px;"/>
    <path d="M848.24,270.12c0-19.7-12.83-24.22-22.41-24.22s-22.41,4.88-22.41,24.22v36.33c0,1.27-.72,1.99-1.99,1.99h-8.68c-1.26,0-1.99-.72-1.99-1.99v-122.54c0-1.27.72-1.99,1.99-1.99h8.68c1.27,0,1.99.72,1.99,1.99v60.37c6.33-7.41,15.72-10.3,23.13-10.3,20.06,0,34.34,12.11,34.34,36.15v36.33c0,1.27-.72,1.99-1.99,1.99h-8.68c-1.26,0-1.99-.72-1.99-1.99v-36.33Z" style="fill: #1190cb; stroke-width: 0px;"/>
    <path d="M621.05,427.11c0,25.12-15.91,38.86-37.05,38.32-9.22-.18-19.16-3.98-25.48-12.47v62.54c0,1.26-.72,1.99-1.99,1.99h-8.68c-1.26,0-1.99-.72-1.99-1.99v-88.38c0-24.58,16.45-38.32,37.59-38.32s37.59,15.72,37.59,38.32ZM608.4,427.11c0-16.09-9.04-26.39-24.94-26.39s-24.94,10.3-24.94,26.39c.54,16.63,9.22,26.39,24.94,26.39s24.94-9.76,24.94-26.39Z" style="fill: #1190cb; stroke-width: 0px;"/>
    <path d="M703.29,450.61c.9.54,1.27,1.63.54,2.53-7.05,7.95-16.63,12.29-28.92,12.29-21.15,0-37.59-13.19-37.59-38.32s16.45-38.32,37.59-38.32,37.59,13.19,37.59,37.96c0,1.27-.72,1.99-1.99,1.99h-60.55c.54,15.18,9.58,24.76,24.94,24.76,7.05,0,13.56-2.35,17.71-6.15.9-.9,1.99-1.08,3.25-.54l7.41,3.8ZM650.87,418.43h47.9c-2.89-10.84-10.84-17.71-23.86-17.71s-21.33,6.87-24.04,17.71Z" style="fill: #1190cb; stroke-width: 0px;"/>
    <path d="M761.3,461.27c0,1.27-.72,1.99-1.99,1.99h-8.67c-1.27,0-1.99-.72-1.99-1.99v-58.74h-19.7c-1.26,0-1.99-.72-1.99-1.99v-7.59c0-1.27.72-1.99,1.99-1.99h19.7v-28.74c0-1.26.72-1.99,1.99-1.99h8.67c1.27,0,1.99.72,1.99,1.99v28.74h19.7c1.26,0,1.99.72,1.99,1.99v7.59c0,1.26-.72,1.99-1.99,1.99h-19.7v58.74Z" style="fill: #1190cb; stroke-width: 0px;"/>
  </g>
</svg>