<?xml version="1.0" encoding="UTF-8"?>
<svg id="Camada_1" data-name="Camada 1" xmlns="http://www.w3.org/2000/svg" viewBox="0 0 502.73 410.83">
  <path d="M132.75,147.01c23.63.6,47.22.39,70.51-4.66,27.09-5.87,51.78,0,73.58,16.9,10.81,8.39,22.77,10.58,35.85,9.68,27.06-1.86,45.61-29.54,37.08-55.32-1.72-5.19-4.9-8.45-10.54-8-6.59.53-9.93,5.3-9.82,11.08.32,17.77-3.48,32.47-25.12,31.56-14.13-.59-20.25-12.92-19.29-37.3,1.58-40.31,21.49-71.77,51.82-95.92,31.7-25.24,72.92-14.4,101,1.14,9.78,5.41,15.76,15.27,18.02,26.34,2.78,13.56,10.14,20.16,24.11,18.54,17.97-2.08,23.76,6.71,22.65,23.57-.72,10.97-2.01,21.72-5.26,32.14-8.04,25.73-16.21,31.62-43.24,31.85-6.06.05-12.12-.16-18.17.08-25.47,1.01-40.77,14.81-43.06,39.98-6.09,66.94-11.71,133.92-17.76,200.86-.66,7.26,2.82,17.88-7.8,19.88-10.54,1.98-18.34-4.94-23.19-14.09-7.93-14.98-15.58-30.11-23.09-45.31-8.93-18.07-22.71-27.07-43.41-26.69-34.52.64-69.06.6-103.58-.03-14.7-.27-25.85,4.05-33.6,16.88-5.86,9.7-14.69,16.04-25.45,19.45-17.05,5.4-29.65,15.86-37.87,31.79-1.92,3.73-4.27,7.41-7.15,10.43-5.61,5.9-12.78,10.86-20.9,8.27-8.63-2.75-4.11-11.44-4.61-17.48-2.17-26.5,2.03-51.83,14.65-75.58,5.49-10.33,7.28-21.57,6.94-33.38-.48-16.35-1.23-32.82.2-49.06,2.36-26.87-4.5-45.27-29.84-61.23C-6.69,146.25-11.49,86.14,21.83,47.39c31.65-36.8,88.12-40.36,121.29-7.25,5.9,5.89,10.6,13.18,14.99,20.35,7.19,11.75,7.43,23.31-4.89,31.96-10.9,7.65-25.33,3.26-33.48-10.37-8.62-14.4-20.37-23.05-37.33-19.79-17.82,3.43-30.76,13.91-35.79,32.17-6.84,24.87,11.57,50.21,38.92,52.32,15.65,1.21,31.48.22,47.22.22Z" style="fill: #1491cb; stroke-width: 0px;"/>
  <path d="M407.88,255.31c.25-5.43.36-10.86.8-16.27,2.48-30.85,8.31-34.65,37.14-24.36,28.53,10.18,45.86,47.16,35.93,76.27-1.95,5.71-5.4,9.58-11.22,10.45-7.47,1.12-12.99-3.04-16.53-8.94-8.91-14.87-18.68-23.02-36.17-10.67-7.17,5.06-11-1.59-11.28-8.45-.24-5.98.84-12.01,1.32-18.02Z" style="fill: #1a94cc; stroke-width: 0px;"/>
  <path d="M219.65,390.5c.25,7.51-.45,14.66-8.22,18.55-8.23,4.13-13.86-.75-18.93-6.1-10.78-11.36-21.71-22.61-31.79-34.57-9.84-11.69-5.81-21.14,9.44-24.09,28.72-5.57,49.79,14.09,49.49,46.21Z" style="fill: #1a94cc; stroke-width: 0px;"/>
</svg>